<?xml version="1.0" encoding="utf-8"?><!-- Uploaded to: SVG Repo, www.svgrepo.com, Generator: SVG Repo Mixer Tools -->
<svg width="800px" height="800px" viewBox="0 0 24 24" fill="none" xmlns="http://www.w3.org/2000/svg">
<path fill-rule="evenodd" clip-rule="evenodd" d="M12.75 3V6.04642C13.8456 6.18303 14.8494 6.61501 15.6793 7.26016L17.8337 5.10571L18.8944 6.16637L16.7399 8.32083C17.385 9.15071 17.817 10.1545 17.9536 11.25H21V12.75H17.9536C17.817 13.8455 17.385 14.8494 16.7399 15.6793L18.8943 17.8337L17.8336 18.8944L15.6792 16.7399C14.8493 17.385 13.8455 17.817 12.75 17.9536V21H11.25V17.9536C10.1545 17.817 9.1507 17.385 8.32081 16.7399L6.16653 18.8943L5.10585 17.8336L7.26014 15.6793C6.61501 14.8494 6.18303 13.8456 6.04642 12.75H3V11.25H6.04642C6.18303 10.1545 6.61498 9.15069 7.26008 8.3208L5.10574 6.16647L6.1664 5.10581L8.32073 7.26014C9.15063 6.61501 10.1545 6.18303 11.25 6.04642V3H12.75ZM8.85065 8.78571C9.66228 7.99038 10.7739 7.5 12 7.5C14.4853 7.5 16.5 9.51472 16.5 12C16.5 13.2592 15.9828 14.3975 15.1493 15.2143L8.85065 8.78571Z" fill="#000"/>
</svg>
