<?xml version="1.0" encoding="utf-8"?><!-- Uploaded to: SVG Repo, www.svgrepo.com, Generator: SVG Repo Mixer Tools -->
<svg width="800px" height="800px" viewBox="0 0 24 24" fill="none" xmlns="http://www.w3.org/2000/svg">
<path fill-rule="evenodd" clip-rule="evenodd" d="M12 6C9.96299 6 8.25 7.74476 8.25 9.975V11.25L15.75 11.25L15.75 9.975C15.75 7.74476 14.037 6 12 6ZM8.25 14.025V12.75H11.25V17.9198C9.55943 17.5537 8.25 15.9749 8.25 14.025ZM12.75 17.9198C14.4406 17.5537 15.75 15.9749 15.75 14.025V12.75H12.75V17.9198ZM4.71973 8.03029L6.75 10.0606V11.25H4.5V12.75H6.75V13.9393L4.71961 15.9697L5.78027 17.0304L7.02754 15.7831C7.72593 17.9289 9.66797 19.5 12 19.5C14.332 19.5 16.274 17.9289 16.9724 15.7832L18.2196 17.0304L19.2803 15.9697L17.25 13.9394V12.75H19.5V11.25H17.25V10.0607L19.2804 8.03029L18.2197 6.96964L16.9725 8.2169C16.2741 6.0711 14.332 4.5 12 4.5C9.668 4.5 7.72598 6.07106 7.02757 8.21682L5.78039 6.96964L4.71973 8.03029Z" fill="#000"/>
</svg>
